<svg width="40" height="40" viewBox="0 0 40 40" fill="none" xmlns="http://www.w3.org/2000/svg">
<rect width="40" height="40" rx="20" fill="#47B2A8"/>
<path d="M16.2235 26V24.884L20.5615 20.204C21.1735 19.532 21.6115 18.92 21.8755 18.368C22.1515 17.816 22.2895 17.252 22.2895 16.676C22.2895 15.2 21.4315 14.462 19.7155 14.462C18.4315 14.462 17.2975 14.942 16.3135 15.902L15.7555 14.75C16.2235 14.27 16.8175 13.886 17.5375 13.598C18.2695 13.298 19.0375 13.148 19.8415 13.148C21.1135 13.148 22.0855 13.448 22.7575 14.048C23.4415 14.636 23.7835 15.476 23.7835 16.568C23.7835 17.324 23.5975 18.068 23.2255 18.8C22.8535 19.52 22.2835 20.288 21.5155 21.104L18.1135 24.74H24.3055V26H16.2235Z" fill="white"/>
</svg>
