<svg width="34" height="34" viewBox="0 0 34 34" fill="none" xmlns="http://www.w3.org/2000/svg">
<g id="Group 30">
<circle id="Ellipse 5" cx="17" cy="17" r="17" fill="#CCEBE8"/>
<path id="Icon" d="M8 10.7761V15.444M8 15.444H12.9091M8 15.444L11.7964 12.052C12.6757 11.2155 13.7636 10.6044 14.9585 10.2757C16.1534 9.94708 17.4164 9.91161 18.6296 10.1726C19.8428 10.4336 20.9667 10.9826 21.8964 11.7684C22.8262 12.5541 23.5314 13.551 23.9464 14.6661M26 23.2239V18.556M26 18.556H21.0909M26 18.556L22.2036 21.948C21.3243 22.7845 20.2364 23.3956 19.0415 23.7243C17.8466 24.0529 16.5836 24.0884 15.3704 23.8274C14.1572 23.5664 13.0333 23.0174 12.1036 22.2316C11.1738 21.4459 10.4686 20.449 10.0536 19.3339" stroke="#34C7B9" stroke-width="2" stroke-linecap="round" stroke-linejoin="round"/>
</g>
</svg>
