<svg width="40" height="40" viewBox="0 0 40 40" fill="none" xmlns="http://www.w3.org/2000/svg">
<rect width="40" height="40" rx="20" fill="#47B2A8"/>
<path d="M19.8595 26.162C19.0195 26.162 18.2215 26.036 17.4655 25.784C16.7095 25.52 16.0735 25.142 15.5575 24.65L16.0975 23.48C16.6855 23.96 17.2795 24.308 17.8795 24.524C18.4795 24.74 19.1275 24.848 19.8235 24.848C20.7355 24.848 21.4315 24.65 21.9115 24.254C22.4035 23.846 22.6495 23.252 22.6495 22.472C22.6495 21.728 22.4035 21.164 21.9115 20.78C21.4195 20.396 20.7055 20.204 19.7695 20.204H17.8975V18.926H19.6435C20.4595 18.926 21.1015 18.716 21.5695 18.296C22.0495 17.864 22.2895 17.276 22.2895 16.532C22.2895 15.872 22.0675 15.362 21.6235 15.002C21.1915 14.642 20.5735 14.462 19.7695 14.462C18.4495 14.462 17.2975 14.942 16.3135 15.902L15.7735 14.75C16.2415 14.246 16.8355 13.856 17.5555 13.58C18.2875 13.292 19.0555 13.148 19.8595 13.148C21.0835 13.148 22.0375 13.436 22.7215 14.012C23.4175 14.588 23.7655 15.386 23.7655 16.406C23.7655 17.114 23.5855 17.738 23.2255 18.278C22.8655 18.806 22.3675 19.19 21.7315 19.43C22.4875 19.634 23.0755 20.012 23.4955 20.564C23.9155 21.104 24.1255 21.776 24.1255 22.58C24.1255 23.672 23.7415 24.542 22.9735 25.19C22.2175 25.838 21.1795 26.162 19.8595 26.162Z" fill="white"/>
</svg>
